<?xml version="1.0" standalone="no"?>
<!DOCTYPE svg PUBLIC "-//W3C//DTD SVG 20010904//EN"
 "http://www.w3.org/TR/2001/REC-SVG-20010904/DTD/svg10.dtd">
<svg version="1.0" xmlns="http://www.w3.org/2000/svg"
 width="16.000000pt" height="16.000000pt" viewBox="0 0 16.000000 16.000000"
 preserveAspectRatio="xMidYMid meet">
<metadata>
Created by potrace 1.11, written by Peter Selinger 2001-2013
</metadata>
<g transform="translate(0.000000,16.000000) scale(0.001563,-0.001563)"
fill="#000000" stroke="none">
<path d="M4408 9934 c-2 -1 -93 -5 -203 -8 -110 -4 -231 -8 -270 -11 -38 -2
-122 -6 -185 -10 -63 -3 -133 -8 -155 -9 -22 -2 -84 -7 -138 -11 -53 -3 -106
-8 -116 -10 -11 -2 -55 -6 -98 -10 -43 -3 -109 -11 -148 -16 -38 -5 -92 -12
-120 -15 -27 -2 -63 -7 -80 -10 -16 -3 -41 -7 -55 -9 -14 -2 -36 -7 -50 -10
-14 -3 -40 -7 -57 -10 -18 -2 -50 -7 -70 -12 -49 -9 -53 -10 -55 -13 -6 -4
-44 -12 -65 -13 -13 0 -23 -5 -23 -9 0 -5 -6 -8 -12 -7 -7 1 -26 -3 -41 -9
-16 -7 -35 -12 -44 -12 -8 0 -27 -7 -41 -14 -33 -18 -120 -55 -129 -55 -3 1
-9 -3 -12 -8 -3 -5 -22 -20 -41 -33 -168 -116 -193 -334 -55 -474 64 -65 77
-75 150 -110 83 -40 190 -77 273 -92 18 -3 34 -10 37 -14 2 -4 15 -5 29 -3 13
3 27 0 30 -6 4 -5 13 -8 21 -4 8 3 15 1 15 -3 0 -8 38 -15 98 -17 12 -1 22 -4
22 -7 0 -3 10 -6 23 -7 12 0 45 -3 72 -7 28 -4 59 -8 70 -9 11 -1 23 -6 27
-12 5 -6 8 -5 8 3 0 9 5 10 19 3 10 -6 21 -7 25 -4 3 3 6 2 6 -3 0 -5 17 -9
38 -9 20 0 71 -4 112 -8 118 -12 240 -21 297 -21 29 -1 53 -3 53 -6 0 -3 24
-5 53 -6 28 -1 104 -4 167 -7 381 -21 1216 -27 1655 -13 127 5 243 8 259 7 15
-1 34 3 41 9 8 6 16 7 19 2 3 -5 29 -8 58 -5 29 2 92 5 140 6 49 1 88 4 88 7
0 3 35 6 78 6 73 2 257 11 257 14 0 0 34 3 75 6 41 3 100 7 130 10 30 2 79 5
107 7 29 1 53 5 53 8 0 3 16 5 35 4 19 -1 35 2 35 5 0 4 7 7 15 7 8 0 15 -4
15 -9 0 -5 6 -6 13 -1 12 8 26 10 103 16 22 2 46 7 52 11 7 4 12 2 12 -6 0 -8
3 -9 8 -3 4 6 16 11 27 11 30 2 125 15 149 21 12 2 37 6 56 8 19 1 42 5 50 9
8 3 33 7 55 10 22 2 50 7 61 9 12 3 37 8 55 11 62 11 94 18 164 36 22 6 51 13
65 16 99 20 257 96 313 150 124 121 119 303 -12 422 -41 37 -183 112 -212 112
-10 0 -19 4 -19 10 0 5 -3 9 -7 8 -8 -2 -92 18 -123 29 -8 4 -24 8 -35 10 -38
8 -50 11 -50 13 0 2 -33 9 -70 14 -84 13 -111 18 -125 21 -8 2 -33 7 -55 10
-23 3 -51 7 -64 10 -12 2 -49 7 -82 10 -33 4 -68 8 -77 10 -9 1 -48 6 -87 10
-38 4 -86 8 -105 10 -146 15 -235 23 -355 31 -38 2 -104 6 -145 9 -112 8 -383
22 -605 31 -120 5 -1393 13 -1397 8z m1372 -448 c308 -13 642 -31 765 -41 28
-2 84 -7 125 -10 41 -3 89 -8 105 -10 17 -2 66 -7 110 -10 44 -4 84 -9 88 -12
4 -3 38 -6 75 -8 37 -2 76 -6 87 -8 12 -3 47 -8 78 -12 57 -7 68 -17 24 -20
-12 -2 -47 -6 -77 -10 -30 -4 -67 -8 -82 -9 -16 0 -28 -4 -28 -8 0 -3 -8 -5
-17 -3 -10 1 -24 -2 -30 -8 -9 -6 -13 -6 -13 2 0 7 -4 9 -10 6 -5 -3 -29 -8
-52 -11 -24 -3 -54 -7 -68 -9 -14 -3 -61 -7 -105 -10 -119 -9 -119 -9 -127
-20 -5 -6 -8 -6 -8 1 0 11 -27 13 -45 3 -6 -3 -29 -5 -52 -5 -24 1 -43 -1 -43
-4 0 -3 -24 -5 -53 -5 -28 0 -56 -2 -61 -4 -5 -2 -36 -5 -70 -7 -108 -5 -279
-15 -356 -19 -41 -2 -138 -7 -214 -10 -77 -3 -143 -8 -148 -11 -4 -3 -8 1 -8
8 0 8 -3 9 -8 3 -9 -12 -246 -18 -797 -18 -541 0 -834 9 -1235 38 -41 3 -104
8 -140 10 -36 2 -87 7 -115 11 -27 3 -57 6 -65 6 -8 1 -21 5 -27 11 -9 6 -13
6 -13 -2 0 -7 -5 -9 -11 -5 -12 7 -37 10 -121 16 -27 2 -48 5 -48 8 0 3 -18 6
-40 7 -23 2 -49 7 -59 12 -12 7 -22 6 -29 -1 -9 -9 -12 -9 -12 0 0 7 -3 11 -7
11 -5 -1 -27 2 -51 6 -42 8 -48 16 -14 22 35 7 78 14 112 18 19 2 35 4 35 5 0
3 44 10 87 14 24 2 43 5 43 6 0 1 11 3 25 5 14 1 50 5 80 8 160 19 189 21 237
22 29 0 53 2 53 5 0 3 28 7 63 8 34 2 80 5 102 7 144 12 364 22 670 31 121 3
221 7 223 9 5 4 1138 -4 1272 -9z"/>
<path d="M4927 8084 c-3 -4 -41 -8 -84 -10 -43 -2 -100 -6 -128 -9 -27 -3 -73
-7 -101 -10 -28 -3 -62 -8 -75 -11 -41 -9 -93 -16 -121 -16 -16 0 -28 -5 -28
-10 0 -5 -8 -7 -17 -4 -10 3 -30 0 -44 -8 -17 -9 -32 -10 -43 -4 -11 6 -16 5
-16 -3 0 -6 -8 -9 -20 -6 -11 3 -20 2 -20 -3 0 -4 -19 -11 -42 -15 -24 -4 -52
-10 -63 -12 -11 -3 -24 -6 -30 -7 -10 -2 -90 -26 -180 -53 -27 -8 -54 -16 -60
-18 -5 -1 -18 -5 -27 -8 -10 -4 -26 -10 -35 -14 -10 -3 -25 -7 -33 -9 -25 -5
-301 -119 -375 -154 -38 -19 -73 -39 -77 -44 -4 -6 -8 -8 -8 -4 0 4 -15 -1
-32 -12 -18 -10 -53 -29 -78 -41 -24 -13 -52 -30 -62 -38 -10 -9 -22 -16 -26
-16 -11 0 -86 -48 -90 -57 -2 -4 -12 -8 -22 -8 -10 0 -20 -3 -22 -7 -1 -5 -49
-39 -106 -77 -56 -37 -108 -73 -115 -80 -7 -6 -31 -24 -53 -39 -23 -15 -57
-41 -75 -57 -55 -48 -58 -50 -61 -50 -5 0 -109 -95 -220 -202 -56 -54 -105
-98 -110 -98 -4 0 -8 -4 -8 -8 0 -5 -21 -32 -47 -60 -80 -85 -113 -122 -113
-128 0 -2 -14 -20 -31 -39 -17 -19 -62 -76 -101 -127 -38 -51 -75 -101 -83
-111 -8 -9 -15 -21 -15 -26 0 -5 -3 -11 -8 -13 -11 -4 -127 -186 -187 -293
-79 -138 -164 -318 -230 -485 -21 -52 -44 -110 -52 -128 -8 -18 -15 -42 -16
-52 -1 -11 -4 -20 -7 -20 -4 0 -7 -6 -8 -12 -1 -19 -7 -39 -20 -71 -7 -15 -14
-38 -16 -50 -3 -12 -9 -36 -15 -54 -5 -17 -7 -34 -3 -37 3 -3 1 -6 -5 -6 -6 0
-13 -15 -17 -32 -3 -18 -11 -55 -17 -83 -5 -27 -12 -61 -15 -75 -3 -14 -7 -33
-10 -42 -3 -10 -7 -29 -10 -43 -2 -14 -6 -37 -9 -52 -5 -32 -32 -221 -39 -280
-26 -209 -26 -714 -1 -844 3 -13 6 -43 7 -67 1 -24 5 -45 10 -48 4 -3 6 -9 3
-15 -3 -5 -1 -35 4 -66 6 -32 13 -75 17 -97 3 -21 7 -46 9 -55 27 -129 40
-185 65 -275 17 -58 30 -113 30 -121 0 -8 4 -15 8 -15 4 0 9 -9 10 -20 4 -44
6 -50 14 -50 5 0 7 -4 3 -9 -3 -5 -1 -12 4 -15 7 -5 23 -65 21 -81 0 -3 6 -12
14 -21 8 -8 18 -30 22 -49 3 -19 10 -35 15 -35 5 0 8 -3 8 -7 -1 -5 0 -11 1
-15 1 -5 3 -11 4 -15 1 -5 12 -30 25 -58 12 -27 24 -54 25 -60 1 -5 6 -17 11
-25 5 -8 10 -17 10 -20 0 -9 29 -75 34 -80 3 -3 16 -27 29 -55 13 -27 34 -68
47 -90 12 -22 24 -44 25 -50 1 -5 7 -17 14 -25 6 -8 21 -32 31 -54 11 -21 25
-40 32 -43 6 -3 9 -11 6 -19 -3 -7 2 -17 11 -20 9 -3 16 -14 16 -24 0 -10 4
-20 8 -22 4 -2 32 -39 62 -83 30 -44 57 -82 61 -85 3 -3 20 -26 37 -52 18 -25
38 -52 45 -60 7 -7 26 -31 42 -54 40 -55 100 -126 157 -188 26 -28 48 -54 48
-58 0 -5 7 -8 17 -8 9 0 14 -3 11 -6 -6 -5 125 -136 143 -142 5 -2 9 -10 9
-18 0 -8 4 -14 8 -14 5 0 39 -29 75 -64 37 -35 67 -61 67 -57 0 3 4 1 8 -4 7
-11 97 -85 143 -118 13 -9 65 -46 114 -82 50 -35 95 -68 100 -72 6 -5 28 -20
50 -33 22 -13 42 -26 45 -29 11 -13 144 -89 151 -87 4 0 15 -6 25 -15 23 -20
330 -170 399 -195 28 -10 53 -22 56 -27 3 -5 8 -7 10 -6 2 1 20 -3 39 -11 19
-7 40 -14 45 -16 21 -6 131 -46 150 -54 21 -9 87 -30 108 -34 7 -2 19 -6 27
-9 50 -20 359 -88 465 -103 28 -3 57 -8 65 -9 9 -2 43 -6 75 -10 33 -4 74 -9
90 -11 163 -23 633 -22 825 1 80 10 196 25 217 29 11 3 36 7 54 10 39 6 71 13
114 22 17 4 39 8 50 9 11 2 65 15 120 30 55 14 107 28 115 30 87 23 106 30
112 39 4 6 8 8 8 4 0 -8 99 24 132 43 10 5 24 9 32 9 8 0 27 6 43 14 31 16 42
21 156 67 43 17 147 66 230 109 214 109 217 110 261 147 7 6 16 10 18 7 3 -2
21 8 41 23 53 41 115 84 124 85 4 1 22 14 38 30 17 15 34 28 38 28 5 0 14 6
21 13 13 12 24 21 104 77 23 17 42 35 42 42 0 6 3 8 6 5 8 -8 119 88 237 204
48 48 87 86 87 84 0 -2 24 22 53 53 28 31 66 70 82 88 56 60 110 126 192 238
46 61 86 116 90 121 35 44 84 115 79 115 -3 0 5 11 18 24 12 14 31 43 42 65
10 23 22 41 27 41 4 0 7 4 7 9 0 5 25 52 55 105 66 117 124 236 187 386 5 14
16 39 23 55 20 48 70 179 70 185 0 3 3 10 7 16 4 6 9 22 12 36 2 15 9 36 16
47 6 12 8 25 5 30 -3 5 -2 11 3 13 11 4 86 287 97 368 2 14 4 25 5 25 4 0 40
225 46 290 3 28 7 61 9 75 22 122 22 634 1 800 -2 14 -7 54 -11 90 -4 36 -9
74 -11 85 -2 11 -6 40 -9 65 -4 25 -8 52 -10 60 -3 8 -7 33 -11 55 -3 22 -10
47 -15 56 -4 9 -6 18 -4 21 5 5 -29 156 -42 188 -3 8 -7 29 -9 45 -3 17 -9 32
-14 33 -6 2 -8 7 -5 12 5 9 -23 99 -38 118 -5 6 -7 12 -3 12 7 0 -39 135 -59
170 -7 14 -14 30 -15 35 -5 20 -12 41 -31 82 -10 24 -19 45 -19 48 0 2 -27 61
-60 131 -33 69 -60 130 -60 134 0 5 -3 10 -7 12 -7 3 -60 98 -87 155 -6 13
-14 23 -18 23 -5 0 -8 5 -8 10 0 10 -48 89 -61 100 -3 3 -14 21 -25 40 -10 19
-21 37 -24 40 -3 3 -16 22 -30 42 -14 21 -28 38 -32 38 -5 0 -8 5 -8 10 0 9
-73 114 -90 130 -3 3 -23 28 -45 55 -22 28 -46 57 -55 66 -8 8 -26 30 -40 49
-32 42 -265 277 -355 357 -39 34 -90 80 -115 102 -25 23 -48 41 -52 41 -4 0
-13 6 -20 13 -62 59 -374 271 -430 293 -10 3 -18 10 -18 14 0 4 -12 11 -27 15
-15 3 -30 10 -33 14 -10 16 -180 106 -192 103 -5 -1 -8 2 -8 8 0 5 -9 10 -19
10 -11 0 -21 4 -23 8 -2 6 -150 75 -168 78 -3 0 -18 6 -35 13 -16 7 -86 33
-155 57 -69 25 -136 49 -149 55 -13 5 -26 7 -29 5 -2 -3 -13 -1 -24 5 -11 6
-32 13 -46 15 -15 3 -31 9 -37 13 -5 4 -17 7 -25 6 -8 -1 -31 4 -50 12 -19 7
-48 14 -65 17 -16 2 -30 5 -30 6 0 2 -37 9 -62 12 -13 1 -23 5 -23 8 0 6 -33
11 -77 13 -13 1 -23 4 -23 7 0 3 -12 6 -27 7 -27 1 -85 9 -128 17 -64 12 -189
25 -307 30 -48 3 -93 8 -99 12 -8 5 -9 3 -4 -5 6 -10 3 -11 -12 -2 -14 7 -23
7 -31 -1 -7 -7 -12 -8 -12 -2 0 13 -93 12 -102 -1 -5 -7 -8 -6 -8 0 0 6 -13
11 -30 10 -16 0 -30 -3 -30 -8 0 -4 -9 -3 -20 3 -15 8 -20 8 -20 -1 0 -8 -4
-9 -13 0 -8 6 -17 8 -20 5z m453 -748 c41 -3 84 -7 95 -10 11 -2 49 -7 85 -11
36 -4 67 -10 70 -14 3 -3 21 -7 40 -8 36 -1 66 -7 135 -24 22 -6 48 -10 58
-10 9 0 17 -4 17 -8 0 -5 11 -7 25 -6 14 2 25 -1 25 -6 0 -5 3 -8 8 -7 8 1 58
-10 82 -19 8 -4 21 -5 28 -4 6 1 12 -3 12 -9 0 -5 3 -9 8 -9 4 1 9 0 12 -1 10
-3 45 -11 58 -12 6 -1 12 -6 12 -11 0 -5 7 -7 15 -4 8 4 17 2 20 -3 4 -6 15
-10 26 -10 10 0 19 -4 19 -8 0 -5 23 -15 50 -22 28 -7 50 -18 50 -22 0 -5 5
-6 10 -3 6 3 10 2 10 -3 0 -5 6 -9 13 -9 14 0 281 -131 342 -168 22 -13 59
-34 83 -46 23 -13 42 -25 42 -29 0 -3 27 -22 60 -41 33 -18 60 -40 60 -47 0
-6 4 -11 8 -10 9 3 61 -33 88 -59 7 -7 16 -13 21 -13 4 0 22 -14 40 -30 18
-17 34 -30 36 -30 5 0 92 -78 164 -146 29 -28 53 -49 53 -46 0 3 13 -11 29
-31 15 -20 31 -34 35 -30 3 3 6 1 6 -6 0 -6 11 -23 25 -37 14 -14 25 -29 25
-34 0 -6 7 -10 15 -10 8 0 15 -3 15 -7 0 -8 27 -41 90 -111 17 -18 30 -37 30
-42 0 -4 3 -10 8 -12 15 -7 145 -192 196 -280 15 -27 31 -48 37 -48 6 0 8 -4
4 -9 -3 -5 8 -29 24 -53 31 -46 115 -210 151 -293 11 -27 25 -59 30 -70 40
-93 117 -327 141 -434 6 -25 13 -55 16 -66 17 -68 26 -114 29 -140 1 -16 3
-31 4 -32 5 -6 20 -100 26 -158 7 -74 17 -193 18 -225 1 -19 5 -41 9 -47 5 -7
4 -13 -1 -13 -10 0 -9 -36 0 -46 4 -3 3 -17 -2 -30 -5 -13 -6 -24 -2 -24 8 0
6 -120 -3 -128 -2 -3 0 -11 6 -19 6 -7 8 -13 3 -13 -5 0 -10 -30 -12 -68 -1
-37 -5 -87 -8 -112 -3 -25 -7 -61 -9 -80 -6 -54 -15 -112 -20 -140 -2 -13 -7
-42 -11 -64 -3 -22 -7 -43 -9 -47 -2 -3 -7 -21 -10 -40 -3 -19 -10 -52 -16
-74 -5 -22 -12 -49 -14 -59 -11 -46 -57 -197 -76 -247 -11 -30 -29 -76 -39
-104 -10 -27 -24 -63 -30 -80 -7 -16 -14 -37 -16 -45 -2 -8 -8 -16 -13 -18 -6
-2 -11 -9 -11 -16 0 -17 -50 -120 -62 -127 -5 -3 -10 -15 -11 -27 0 -12 -7
-24 -15 -27 -7 -3 -10 -9 -7 -15 3 -5 3 -10 -2 -10 -4 0 -19 -23 -32 -50 -14
-28 -29 -50 -35 -50 -5 0 -7 -3 -3 -6 3 -4 -12 -33 -33 -65 -22 -32 -40 -63
-40 -68 0 -6 -3 -11 -8 -11 -4 0 -12 -9 -17 -19 -12 -23 -114 -165 -147 -203
-13 -15 -36 -44 -53 -65 -72 -89 -186 -206 -310 -318 -49 -44 -100 -92 -114
-107 -14 -16 -29 -28 -34 -28 -5 0 -27 -15 -50 -34 -58 -47 -288 -200 -326
-217 -17 -8 -31 -17 -31 -21 0 -5 -7 -8 -15 -8 -8 0 -15 -5 -15 -11 0 -5 -4
-8 -9 -5 -5 3 -20 -3 -34 -14 -14 -11 -32 -20 -40 -20 -9 0 -18 -4 -21 -9 -8
-12 -98 -56 -108 -53 -5 1 -8 -2 -8 -7 0 -9 -40 -27 -49 -22 -2 2 -7 -1 -10
-6 -10 -13 -163 -73 -172 -67 -5 3 -9 0 -9 -5 0 -6 -3 -10 -7 -9 -5 1 -19 -3
-33 -10 -55 -24 -327 -99 -420 -116 -19 -3 -45 -8 -56 -10 -12 -2 -37 -7 -55
-10 -19 -3 -45 -8 -59 -11 -14 -2 -47 -7 -75 -10 -27 -2 -72 -7 -100 -10 -156
-19 -499 -19 -642 0 -24 3 -64 8 -90 11 -66 8 -258 42 -328 57 -116 27 -455
135 -500 160 -11 6 -23 10 -27 9 -5 -1 -8 3 -8 8 0 5 -3 9 -7 8 -12 -4 -187
83 -195 96 -4 6 -8 8 -8 4 0 -4 -15 1 -32 11 -18 10 -54 29 -80 44 -72 40
-262 161 -284 182 -30 27 -55 45 -62 45 -7 0 -53 37 -99 80 -12 11 -24 20 -27
20 -13 0 -324 307 -376 372 -14 17 -32 38 -41 47 -8 9 -29 34 -45 56 -32 44
-44 59 -59 78 -31 37 -85 116 -85 125 0 6 -4 12 -8 14 -12 5 -123 188 -115
188 5 0 3 4 -3 8 -14 9 -75 122 -67 122 4 0 0 6 -9 13 -34 26 -183 400 -229
577 -21 79 -59 241 -64 275 -2 11 -6 35 -9 53 -15 80 -18 100 -21 142 -2 25
-6 56 -9 70 -3 14 -8 63 -10 110 -3 47 -5 85 -6 85 -5 0 -2 283 4 345 3 41 9
104 12 140 5 59 11 106 30 225 3 22 11 48 16 59 6 11 6 16 1 13 -6 -4 8 60 29
141 21 81 41 158 44 171 9 45 107 306 116 312 6 3 9 9 8 13 -3 12 53 136 61
136 5 0 6 7 3 15 -4 8 -1 15 5 15 6 0 11 9 11 20 0 11 4 20 9 20 5 0 14 12 20
28 13 32 46 92 60 109 6 7 23 34 37 60 36 65 97 157 106 161 5 2 8 9 8 15 0 7
11 25 25 41 14 16 25 32 25 35 0 3 10 17 23 31 12 14 47 57 78 95 31 39 79 94
107 123 27 28 49 52 47 52 -4 0 140 139 197 191 20 19 65 56 100 84 35 27 68
54 73 58 43 34 185 137 190 137 3 0 14 8 25 18 10 9 36 26 57 37 21 11 40 23
44 27 6 9 296 157 354 181 22 9 66 27 97 40 32 14 60 22 62 19 3 -3 8 2 12 11
3 9 12 13 19 11 7 -3 16 -1 19 5 4 6 13 8 21 4 8 -3 15 -1 15 5 0 8 33 18 78
24 6 1 12 4 12 8 0 4 6 7 13 7 6 1 34 8 61 17 27 8 53 13 57 11 4 -3 12 2 19
10 7 8 16 13 20 10 4 -2 37 4 73 14 37 10 64 14 61 9 -4 -6 1 -6 12 0 11 5 35
13 54 16 19 3 44 8 56 10 36 7 127 19 164 22 19 1 35 3 35 4 0 1 31 4 70 6 38
3 71 6 73 8 5 5 410 -1 492 -8z"/>
<path d="M3675 5041 c-2 -1 -19 -5 -37 -7 -34 -4 -73 -11 -73 -14 0 -1 -9 -3
-19 -5 -25 -5 -147 -66 -164 -82 -7 -7 -17 -13 -21 -13 -10 0 -151 -137 -151
-148 0 -4 -8 -17 -18 -28 -17 -18 -56 -94 -54 -104 0 -3 -5 -8 -12 -12 -7 -4
-12 -19 -11 -33 2 -14 0 -25 -5 -25 -7 0 -23 -83 -20 -104 1 -5 -4 -13 -12
-18 -10 -7 -10 -11 -1 -14 10 -4 10 -10 0 -25 -10 -16 -9 -21 3 -29 8 -5 10
-10 4 -10 -7 0 -11 -15 -10 -35 0 -19 3 -35 6 -35 3 0 6 -13 8 -30 1 -16 3
-43 4 -60 2 -16 6 -30 10 -30 5 0 8 -11 8 -25 0 -14 5 -25 10 -25 6 0 10 -8
10 -18 0 -10 14 -39 30 -65 17 -26 30 -50 30 -52 0 -19 164 -182 191 -190 11
-4 17 -11 14 -16 -3 -5 1 -6 9 -3 9 3 16 1 16 -5 0 -6 7 -11 15 -11 8 0 15 -5
15 -12 0 -6 3 -8 7 -5 3 4 17 0 30 -8 13 -9 23 -13 23 -9 0 4 7 1 15 -6 8 -7
15 -9 15 -5 0 4 8 1 17 -6 14 -12 16 -12 9 1 -6 12 -5 12 6 -1 7 -8 27 -15 46
-14 17 0 32 -2 32 -5 0 -4 50 -6 110 -7 61 0 110 3 110 7 0 4 11 8 25 9 46 3
55 4 55 10 0 4 12 8 27 9 15 1 29 6 32 10 3 5 22 14 41 22 35 14 99 56 112 75
4 5 8 7 8 3 0 -18 160 158 160 177 0 6 9 21 20 35 11 14 20 33 20 42 0 9 6 23
13 30 11 12 17 31 20 71 1 9 4 17 8 17 14 0 17 255 4 305 -4 17 -8 38 -9 47 0
9 -4 14 -8 12 -4 -3 -8 2 -8 11 0 8 -7 32 -17 53 -9 20 -17 39 -18 42 0 3 -17
31 -38 62 -44 68 -122 146 -186 188 -25 16 -51 34 -58 40 -7 5 -16 10 -21 10
-5 0 -27 8 -48 17 -45 19 -38 17 -89 28 -22 5 -43 8 -47 7 -5 -1 -8 3 -8 9 0
8 -5 8 -15 -1 -8 -7 -15 -8 -15 -3 0 12 -50 11 -69 -1 -9 -6 -12 -5 -8 1 6 10
-69 14 -78 4z"/>
<path d="M6327 5044 c-4 -4 -17 -8 -29 -10 -54 -7 -83 -16 -86 -25 -2 -5 -8
-9 -13 -9 -6 0 -7 6 -4 13 4 6 -1 3 -9 -7 -9 -11 -16 -16 -16 -12 0 5 -7 3
-15 -4 -8 -7 -15 -9 -15 -6 0 4 -17 -5 -37 -19 -21 -14 -41 -25 -46 -25 -5 0
-14 -6 -21 -12 -7 -7 -28 -24 -46 -38 -37 -28 -43 -34 -82 -79 -16 -17 -28
-35 -28 -40 0 -6 -6 -14 -13 -18 -18 -11 -88 -153 -81 -164 3 -5 0 -9 -5 -9
-6 0 -11 -8 -11 -18 0 -10 -3 -22 -7 -25 -18 -18 -21 -283 -3 -312 3 -5 7 -23
9 -40 2 -16 6 -32 10 -35 3 -3 12 -23 20 -45 8 -22 17 -42 20 -45 4 -3 15 -22
25 -43 20 -44 171 -201 204 -211 12 -4 22 -11 22 -16 0 -7 43 -27 64 -28 5 0
12 -4 15 -9 16 -23 141 -55 227 -58 28 -1 55 -5 61 -8 6 -4 13 -3 17 0 3 4 19
8 34 9 58 4 127 17 132 25 3 4 17 10 31 12 15 3 44 14 66 26 22 11 43 18 47
16 3 -3 4 -2 1 2 -3 3 13 18 35 33 44 29 154 130 143 130 -5 0 -3 4 2 8 20 14
62 78 89 137 33 70 47 117 60 211 2 11 6 26 10 32 3 6 2 14 -4 17 -8 5 -8 11
-1 19 6 7 7 16 3 20 -4 4 -8 29 -9 54 -1 26 -2 49 -3 52 -1 3 -2 8 -1 13 0 4
-3 7 -7 7 -4 0 -8 8 -9 18 -6 84 -76 214 -167 310 -38 39 -75 72 -82 72 -7 0
-14 3 -16 8 -6 13 -63 49 -100 62 -21 8 -38 17 -38 20 0 4 -6 7 -12 8 -38 5
-55 9 -73 18 -11 6 -27 10 -35 9 -8 -1 -25 2 -38 7 -17 6 -21 5 -16 -4 5 -7 3
-8 -6 -3 -20 12 -130 15 -130 3 0 -7 -5 -6 -13 1 -8 6 -17 8 -20 5z"/>
</g>
</svg>
