<svg id="Layer_1" data-name="Layer 1" xmlns="http://www.w3.org/2000/svg" viewBox="0 0 100 84.72"><title>data</title><path d="M60.46,58.24h0c-4.11,0-6.93-3.88-7.05-4a1.68,1.68,0,0,1-.09-1.49,1.48,1.48,0,0,1,1.06-.9h12a1.48,1.48,0,0,1,1.07.92,1.42,1.42,0,0,1-.13,1.38C65.2,56.77,62.91,58.24,60.46,58.24ZM57.31,54.4c0.86,1.29,1.7,1.3,3,1.3V55.62c1.29,0,2.19.07,3.2-1.22h-6.2Z" transform="translate(0 -7.64)"/><path d="M39.73,58.24h0c-4.11,0-6.94-3.88-7.05-4a1.67,1.67,0,0,1-.09-1.49,1.48,1.48,0,0,1,1.06-.9h12a1.48,1.48,0,0,1,1.08.92,1.42,1.42,0,0,1-.13,1.38C44.47,56.77,42.17,58.24,39.73,58.24ZM36.57,54.4c0.86,1.29,1.72,1.3,3,1.3V55.62c1.29,0,2.18.07,3.18-1.22H36.57Z" transform="translate(0 -7.64)"/><path d="M99.05,25.1a1.23,1.23,0,0,0-1.48-.8,1.21,1.21,0,0,0-.88,1.42c0.56,2.52-1.48,3.75-4.84,5.55s-7.35,4-6.7,8.83a14.76,14.76,0,0,1-1.55,9.1V41.14a33.67,33.67,0,0,0-67.33,0v7.81A14.22,14.22,0,0,1,14.9,40.1c0.65-4.87-3.4-7.07-6.7-8.83s-5.36-3-4.8-5.55a1.19,1.19,0,0,0-.85-1.42A1.31,1.31,0,0,0,1,25.1c-0.07.22-6.74,21.73,15.28,29.48V77.8L49.81,92.36,83.61,77.8V54.61C105.63,46.9,99.12,25.32,99.05,25.1ZM2.6,30.37a19,19,0,0,0,4.53,3c3.7,2,5.91,3.4,5.51,6.41a18.86,18.86,0,0,0,2.43,11.66C3.24,46.2,2.11,36.22,2.6,30.37Zm41-8.34H57.37L64,41.15l-7,1.3-1.19-4.88H45.21L44,42.34l-7-1.19ZM39.2,49.11c8.64,2.38,10,4,10,4C41.59,64.66,34,58.28,34,58.28S23.25,44.73,39.2,49.11ZM49.87,88.59l-16-7h0.57V68.2L49.95,64,65.48,68.2V81.59H66ZM66.35,58.28s-7.58,6.38-15.15-5.18c0,0,1.33-1.61,10-4C77.11,44.73,66.35,58.28,66.35,58.28ZM85,51.45a18.87,18.87,0,0,0,2.43-11.66c-0.4-3,1.81-4.43,5.51-6.41a19,19,0,0,0,4.53-3C98,36.22,96.87,46.2,85,51.45Z" transform="translate(0 -7.64)"/><polygon points="53.83 22.15 51.19 22.15 49.6 22.15 47.36 22.15 47.36 24.74 53.83 24.74 53.83 22.15"/></svg>