<svg id="Layer_1" data-name="Layer 1" xmlns="http://www.w3.org/2000/svg" viewBox="0 0 74.37 100"><title>designer</title><path d="M61.3,59.11h0c-4.51,0-7.6-4.4-7.73-4.58L52.08,52.3H70.44l-1.66,2.27C66.49,57.49,64,59.11,61.3,59.11Zm-3.46-4c0.94,1.42,2.14,1.26,3.46,1.26h0c1.12,0,2.23.16,3.33-1.26H57.83Z" transform="translate(-12.81)"/><path d="M38.57,59.11h0c-4.51,0-7.6-4.4-7.73-4.58L29.36,52.3H47.71l-1.66,2.27C43.77,57.49,41.25,59.11,38.57,59.11Zm-3.46-4c0.94,1.42,2.14,1.26,3.46,1.26h0c1.12,0,2.23.16,3.33-1.26H35.11Z" transform="translate(-12.81)"/><path d="M80,17.34c-6.17-7-14.57-8.49-17.5-8.79-8-10-18.2-9.21-23.64-7.51-6.65,2.08-10.44,6.8-14.21,12.08a25.18,25.18,0,0,0-4.82,4.22C14,23.92,11.89,33.4,13.17,45.52c0,0.12.22,0.23,0.22,0.34V84l36.75,16,37-15.95V44.15C87.19,32.69,85.53,23.67,80,17.34Zm1.53,63.84L49.44,95.24,17.65,81.18V45.92l7.54-9.65a2.13,2.13,0,0,0,.39-0.92c0-.16,3.36-16.09,14.55-16.09a14.13,14.13,0,0,1,3.15.38c-0.9,3.52,3.12,6.32,4.44,7.24,0.43,0.3,1.8,1.32,1.5,2-0.56,1.35-4.19,2.9-7.6,2.27-2.86-.52-4.36-2.31-4.45-5.31L32.78,26c0.16,5,3.16,8.57,8,9.46a13.2,13.2,0,0,0,2.39.21c4.43,0,8.78-2.1,10-5.11,0.5-1.21,1.22-4.35-3-7.31-2.17-1.51-2.6-2.36-2.68-2.59C48,20,50.71,19.18,53.09,19l1-.1,1.32,0.24,1.85,0.33L59,19.84l1.63-.52a10.69,10.69,0,0,1,4.55,1.58C71.72,25,73.88,35.24,73.9,35.34l-0.22.51,7.83,10.33v35Z" transform="translate(-12.81)"/></svg>