<svg id="Layer_1" data-name="Layer 1" xmlns="http://www.w3.org/2000/svg" viewBox="0 0 81.38 100"><title>ifi</title><path d="M86,16.23L78.15,0,69.6,30.67a30.18,30.18,0,0,0-38.77-.25L22.35,0,14.47,16.23,9.31,53.53,19.75,84.47v2.38L49.44,100,79.39,86.86V85.53l11.3-32Zm-36,10.87a26.55,26.55,0,0,1,18.45,7.45L63.76,51.63,50.25,62,36.75,51.63,31.91,34.27A26.55,26.55,0,0,1,50.07,27.1Zm14,37.44C62.62,65.7,60.68,67,59.51,67h0a5.65,5.65,0,0,1-4.7-2.48h9.27Zm-18.72,0C43.89,65.7,42,67,40.8,67h0a5.68,5.68,0,0,1-4.72-2.48h9.27Zm30.53,20L49.45,96.07,23.25,84.5V84l6.29-7-0.62-4.66,4.27,2.12L50.24,64.25l17,10.23,4.25-2.12L70.45,77l5.42,6.56v0.92Z" transform="translate(-9.31)"/></svg>