<svg id="Layer_1" data-name="Layer 1" xmlns="http://www.w3.org/2000/svg" viewBox="0 0 100 100"><title>industrial-designer</title><path d="M57.93,56.43h0c-3.71,0-6.26-3.5-6.36-3.65a1.51,1.51,0,0,1-.08-1.34,1.34,1.34,0,0,1,1-.81H63.24a1.34,1.34,0,0,1,1,.83,1.28,1.28,0,0,1-.12,1.25C62.21,55.1,60.14,56.43,57.93,56.43ZM55.08,53c0.78,1.17,2.25,1.17,3.42,1.17V54.07A2.77,2.77,0,0,0,60.67,53H55.08Z"/><path d="M39.22,56.43h0c-3.71,0-6.26-3.5-6.36-3.65a1.51,1.51,0,0,1-.08-1.34,1.34,1.34,0,0,1,1-.81H44.53a1.33,1.33,0,0,1,1,.83,1.28,1.28,0,0,1-.12,1.25C43.5,55.1,41.43,56.43,39.22,56.43ZM36.37,53c0.78,1.17,2.26,1.17,3.43,1.17V54.07A2.76,2.76,0,0,0,42,53H36.37Z"/><path d="M19.94,51.39h0Z"/><path d="M99.52,17.52a1.08,1.08,0,0,0-1.45.23l-0.15.19a17.46,17.46,0,0,1-4.56,1.8c3-3.52,6.65-10,6.5-11.66A1.22,1.22,0,0,0,99,7c-0.88-.29-1.63.46-2.51,1.46-3.75,4.29-6,5.37-10.78,7.7-1.05.51-2.22,1.09-3.54,1.76,0,0-4.43,2.71-4.29,6.89a47.66,47.66,0,0,1-.66,8.43A30,30,0,0,0,52.39,16.85a1.58,1.58,0,0,0-1.79-1.28H49.88a1.61,1.61,0,0,0-1.79,1.33,30.17,30.17,0,0,0-25.2,17.22,51,51,0,0,1-.8-9.3c0.14-4.19-4.29-6.89-4.29-6.89-1.32-.67-2.49-1.25-3.54-1.76-4.83-2.34-7-3.41-10.78-7.7C2.59,7.46,1.85,6.72,1,7A1.22,1.22,0,0,0,.14,8.09C0,9.74,3.67,16.23,6.64,19.75a17.44,17.44,0,0,1-4.56-1.8l-0.15-.19A1.08,1.08,0,0,0,.14,19a1.38,1.38,0,0,0,.17.23,74.9,74.9,0,0,0,7.11,7.95A19,19,0,0,1,2.53,25.6a1.08,1.08,0,0,0-1.28,1.72c0.21,0.2,4,3.71,7.79,6.54A22.59,22.59,0,0,1,3.4,32.38a1.08,1.08,0,0,0-1.12,1.82c1,0.79,4.41,3.57,7.43,5.65a20.63,20.63,0,0,1-5.37-1.63A1.08,1.08,0,0,0,3,39.95c0.21,0.19,4,3.71,7.79,6.54A22.51,22.51,0,0,1,5.2,45a1.08,1.08,0,0,0-1.29,1.66c0.27,0.34,6.81,8.21,12.35,8.23,0.07,0,1.92.16,4.26,3.1V79.92L50.2,93.06,80.11,79.92V57.64L79.47,58c2.34-2.94,4.19-3.1,4.26-3.1,5.54,0,12.08-7.89,12.35-8.23A1.08,1.08,0,0,0,94.8,45a22.56,22.56,0,0,1-5.64,1.47C93,43.66,96.74,40.14,97,39.95a1.08,1.08,0,0,0-1.28-1.72,20.66,20.66,0,0,1-5.37,1.63c3-2.08,6.46-4.86,7.43-5.65a1.08,1.08,0,0,0-1.12-1.82A22.64,22.64,0,0,1,91,33.86c3.8-2.83,7.58-6.34,7.79-6.54a1.08,1.08,0,0,0-1.28-1.72,19.05,19.05,0,0,1-4.89,1.53,74.9,74.9,0,0,0,7.11-7.95A1.45,1.45,0,0,0,99.86,19,1.08,1.08,0,0,0,99.52,17.52ZM18.89,51.15a2.24,2.24,0,0,0,1,.24h0.68V55c-1.17-.54-1.94-1-3-1.36-2.52-.88-1.24-0.94-1.37-0.94-2.48,0-5.59-2.34-7.84-4.52A39.66,39.66,0,0,0,15,49a1.08,1.08,0,0,0,.53-2,54,54,0,0,1-7.1-5.22c2.66,0.58,5.2.9,5.38,0.92a1.08,1.08,0,0,0,1-.47l0.3-.45a1.08,1.08,0,0,0-.69-1.66c-0.9-.18-3.7-2.11-6.55-4.26a40.42,40.42,0,0,0,5.27.54,1.11,1.11,0,0,0,1.07-.79,1.08,1.08,0,0,0-.51-1.23,54,54,0,0,1-7.1-5.22c2.66,0.58,5.2.89,5.38,0.92a1.08,1.08,0,0,0,.28-2.14c-1.34-.19-4.43-3.23-7.24-6.43a17.34,17.34,0,0,0,5.1,1,1.18,1.18,0,0,0,1-1,1.72,1.72,0,0,0-1.21-1.62c-1.38-.73-3.87-4.41-5.63-7.49,2.78,2.62,5.14,3.77,9,5.64,1,0.51,2.2,1.07,3.52,1.73a7,7,0,0,1,2.58,4.46c0.29,2.77,1.14,15.29,1.37,15.87a30.09,30.09,0,0,0-.69,4.74l-0.52.24a1.45,1.45,0,0,0-.79,1.09l-0.5,3.52A1.43,1.43,0,0,0,18.89,51.15ZM76.61,77.56L50.2,89.13,24,77.56V49.74a68.28,68.28,0,0,1,26.51-5.12,77.89,77.89,0,0,1,26.07,4.54v28.4ZM50.46,41.65a72.87,72.87,0,0,0-26.84,4.9s0-.07,0-0.1a67.23,67.23,0,0,1,26.74-5.37,79.43,79.43,0,0,1,26.47,4.63c0,0.08,0,.16,0,0.24A85.52,85.52,0,0,0,50.46,41.65ZM87.72,27.94A1.08,1.08,0,0,0,88,30.08c0.18,0,2.72-.33,5.38-0.92a54,54,0,0,1-7.1,5.22,1.08,1.08,0,0,0-.51,1.23,1.11,1.11,0,0,0,1.07.79,40.42,40.42,0,0,0,5.27-.54c-2.85,2.15-5.65,4.08-6.55,4.26a1.08,1.08,0,0,0-.69,1.66l0.3,0.45a1.08,1.08,0,0,0,1,.47c0.18,0,2.72-.33,5.38-0.92A54,54,0,0,1,84.48,47,1.08,1.08,0,0,0,85,49a39.65,39.65,0,0,0,6.67-.82c-2.25,2.18-5.36,4.51-7.84,4.52-0.12,0,1.16.06-1.37,0.94a21,21,0,0,0-2.36,1.06V50.41a1.4,1.4,0,0,0,1.39-1.59,2.94,2.94,0,0,0,0-.6l-0.45-3.14A1.41,1.41,0,0,0,80.31,44a29.71,29.71,0,0,0-.61-3.84,0.58,0.58,0,0,0,.06-0.34l0.83-15.55a7,7,0,0,1,2.58-4.46c1.31-.66,2.47-1.22,3.52-1.73,3.87-1.87,6.23-3,9-5.64-1.76,3.08-4.26,6.75-5.63,7.49a1.71,1.71,0,0,0-1.21,1.62,1.18,1.18,0,0,0,1,1,17.3,17.3,0,0,0,5.1-1C92.15,24.71,89.06,27.75,87.72,27.94Z"/><path d="M19.94,51.39h0Z"/></svg>