<svg id="Layer_1" data-name="Layer 1" xmlns="http://www.w3.org/2000/svg" viewBox="0 0 81.63 100"><title>maker</title><path d="M63.77,58.9h0c-5.29,0-8.92-5-9.07-5.2a1.44,1.44,0,0,1-.12-1.54A1.48,1.48,0,0,1,56,51.38H71.34a1.47,1.47,0,0,1,1.21,2.4C69.87,57.2,66.92,58.9,63.77,58.9Zm-4.06-4.19c1.11,0,2.51,1.48,4.06,1.48h0c1.31,0,2.62-1.48,3.91-1.48h-8Z" transform="translate(-9.18)"/><path d="M37.11,58.9h0c-5.29,0-8.92-5-9.07-5.2a1.44,1.44,0,0,1-.12-1.54,1.48,1.48,0,0,1,1.37-.78H44.68a1.47,1.47,0,0,1,1.21,2.4C43.21,57.2,40.25,58.9,37.11,58.9Zm-4.06-4.19c1.11,0,2.51,1.48,4.06,1.48h0c1.31,0,2.62-1.48,3.91-1.48h-8Z" transform="translate(-9.18)"/><path d="M90.82,41A40.83,40.83,0,0,0,9.19,38.93c0,0.69,0,1.39,0,2.09V86.46L40.87,100V99.66H59.18V100L90.82,86.47V41ZM37.82,8l7.45,26.78H54.8L62.23,8C65,9.54,77.44,16.75,80,21.44L76.31,38.05c-25.49,10.63-50.19,1.48-52.5.57L20.05,21.42C22.59,16.72,35,9.53,37.82,8Zm21,86.71H40.78C38.16,76.35,19.16,56.06,16.64,53.53l6-11.14a78.4,78.4,0,0,0,27.32,4.86,72.46,72.46,0,0,0,27.23-5.13l6.17,11.47C80.77,56.12,61.5,76.35,58.83,94.67Z" transform="translate(-9.18)"/></svg>