<svg id="Layer_1" data-name="Layer 1" xmlns="http://www.w3.org/2000/svg" viewBox="0 0 77.96 100"><title>random</title><path d="M49.84,100L11,82.81V39.54C11,17.74,28.2,0,50,0S89,17.74,89,39.54V82.82ZM15.61,79.73L49.85,94.87,84.39,79.73V39.54a34.4,34.4,0,1,0-68.79,0V79.73Z" transform="translate(-11.02)"/><path d="M80.33,36.83c-0.3-8.06-3.16-10.66-5.51-11.42a5.69,5.69,0,0,0-1.76-.27c-5.07,0-13,7.57-18.36,24.18a59.7,59.7,0,0,0-3.24,19.75c0.3,8.06,3.16,10.66,5.51,11.42a5.72,5.72,0,0,0,1.76.27h0c5.07,0,13-7.57,18.36-24.18A59.81,59.81,0,0,0,80.33,36.83ZM63,56.77V56.7a9,9,0,0,1-6.91-3.31H68.19C66.3,56.45,64.52,56.77,63,56.77Z" transform="translate(-11.02)"/><path d="M45.09,49.33C39.71,32.71,31.8,25.14,26.73,25.14a5.67,5.67,0,0,0-1.75.27c-2.35.76-5.21,3.36-5.51,11.42A59.79,59.79,0,0,0,22.7,56.58C28.08,73.2,36,80.76,41.06,80.76a5.72,5.72,0,0,0,1.75-.27c2.35-.76,5.21-3.36,5.51-11.42A59.71,59.71,0,0,0,45.09,49.33Zm-6.55,7.44V56.7a9.09,9.09,0,0,1-6.93-3.31H43.72C41.82,56.45,40.06,56.77,38.54,56.77Z" transform="translate(-11.02)"/></svg>